<?xml version="1.0" encoding="utf-8"?>
<!-- Generator: Adobe Illustrator 27.5.0, SVG Export Plug-In . SVG Version: 6.00 Build 0)  -->
<svg version="1.1" id="Layer_1" xmlns="http://www.w3.org/2000/svg" xmlns:xlink="http://www.w3.org/1999/xlink" x="0px" y="0px"
	 viewBox="0 0 4000 4000" style="enable-background:new 0 0 4000 4000;" xml:space="preserve">
<g>
	<rect style="fill-rule:evenodd;clip-rule:evenodd;fill:#FFFFFF;" width="4000" height="4000"/>
	<g>
		<defs>
			<path id="SVGID_1_" d="M2320.812,2585.936c170.357-247.266,22.741-378.347-442.862-393.229
				c-260.097-4.19-496.146-153.034-612.033-385.91c-14.95-30.039-27.574-60.831-37.902-92.129
				c-96.508,326.464,10.766,706.099,302.237,881.984C1777.834,2746.061,2084.594,2737.51,2320.812,2585.936"/>
		</defs>
		<clipPath id="SVGID_00000049206593133083683750000000348261227870214552_">
			<use xlink:href="#SVGID_1_"  style="overflow:visible;"/>
		</clipPath>
		
			<linearGradient id="SVGID_00000011711381522303917270000000448786178734256799_" gradientUnits="userSpaceOnUse" x1="1930.725" y1="2371.5415" x2="1416.6234" y2="1763.6106">
			<stop  offset="0" style="stop-color:#FFCE4B"/>
			<stop  offset="1" style="stop-color:#C31656"/>
		</linearGradient>
		
			<rect x="1131.506" y="1714.668" style="clip-path:url(#SVGID_00000049206593133083683750000000348261227870214552_);fill:url(#SVGID_00000011711381522303917270000000448786178734256799_);" width="1359.663" height="1031.393"/>
	</g>
	<g>
		<defs>
			<path id="SVGID_00000106147055101628871680000003848162258653236655_" d="M2537.034,2017.682
				c-60.399-155.963-202.554-264.408-367.475-282.509c-156.262,114.887-363.402,133.478-537.628,48.256
				c-174.23-85.22-286.715-260.146-291.954-454.033c-5.243-193.876,97.629-374.628,267-469.127
				c-109.434,48.517-206.519,125.293-279.824,225.574c-133.706,182.921-168.871,417.468-99.139,628.826
				c10.328,31.298,22.952,62.09,37.902,92.129c115.887,232.876,351.937,381.719,612.033,385.91
				c465.604,14.882,613.22,145.964,442.862,393.229c41.858-26.859,81.502-58.207,118.21-93.967
				C2562.062,2366.872,2600.414,2181.308,2537.034,2017.682"/>
		</defs>
		<clipPath id="SVGID_00000005981561593186200000000009389248221239406768_">
			<use xlink:href="#SVGID_00000106147055101628871680000003848162258653236655_"  style="overflow:visible;"/>
		</clipPath>
		
			<linearGradient id="SVGID_00000167397740222176331690000002761072198313123258_" gradientUnits="userSpaceOnUse" x1="1873.1871" y1="1636.0021" x2="1939.6141" y2="2575.1633">
			<stop  offset="0" style="stop-color:#EFC552"/>
			<stop  offset="1" style="stop-color:#C31656"/>
		</linearGradient>
		
			<rect x="1158.282" y="860.269" style="clip-path:url(#SVGID_00000005981561593186200000000009389248221239406768_);fill:url(#SVGID_00000167397740222176331690000002761072198313123258_);" width="1442.131" height="1725.667"/>
	</g>
	<g>
		<defs>
			<path id="SVGID_00000065780531287247491320000002542407557292923567_" d="M1631.931,1783.429
				c174.226,85.221,381.366,66.63,537.628-48.262c-8.091-0.888-16.243-1.559-24.44-2.008
				c-299.823-17.78-492.794-159.426-530.313-279.158c-1.044-3.329-1.964-6.643-2.769-9.934
				c-37.125-138.572-12.414-286.638,68.1-405.765c82.446-121.99,214.852-201.006,361.36-215.64
				c-14.25-3.985-29.556-8.629-45.999-13.979c-134.304-20.759-268.802-1.492-388.522,51.587
				c-169.371,94.499-272.243,275.251-267,469.127C1345.216,1523.283,1457.701,1698.209,1631.931,1783.429"/>
		</defs>
		<clipPath id="SVGID_00000125593016367580105990000017482592163508062620_">
			<use xlink:href="#SVGID_00000065780531287247491320000002542407557292923567_"  style="overflow:visible;"/>
		</clipPath>
		
			<linearGradient id="SVGID_00000131342437634650774710000015108703277371001753_" gradientUnits="userSpaceOnUse" x1="1761.6847" y1="1875.7561" x2="1745.1836" y2="928.614">
			<stop  offset="0" style="stop-color:#007B70"/>
			<stop  offset="1" style="stop-color:#AFF022"/>
		</linearGradient>
		
			<rect x="1334.734" y="787.923" style="clip-path:url(#SVGID_00000125593016367580105990000017482592163508062620_);fill:url(#SVGID_00000131342437634650774710000015108703277371001753_);" width="834.825" height="1080.727"/>
	</g>
	<g>
		<defs>
			<path id="SVGID_00000027603433265332061770000007116045914881580952_" d="M1886.711,1345.122
				c161.414-14.766,308.18-99.726,401.382-232.344c93.196-132.612,123.399-299.49,82.612-456.363
				c-42.418-6.054-86.081-5.344-129.387,2.652c-21.931,105.293,45.393,232.172-199.82,163.594
				c-146.508,14.634-278.914,93.65-361.36,215.64c-80.514,119.127-105.226,267.193-68.1,405.765
				c-11.804-48.484,2.679-92.612,46.791-122.372C1727.989,1259.896,1803.954,1267.704,1886.711,1345.122"/>
		</defs>
		<clipPath id="SVGID_00000049186996007064407260000014952654626366242750_">
			<use xlink:href="#SVGID_00000027603433265332061770000007116045914881580952_"  style="overflow:visible;"/>
		</clipPath>
		
			<linearGradient id="SVGID_00000003799068188111674090000012059945651836558212_" gradientUnits="userSpaceOnUse" x1="1638.1089" y1="1292.3893" x2="2704.8577" y2="555.8482">
			<stop  offset="0" style="stop-color:#007B70"/>
			<stop  offset="1" style="stop-color:#AFF022"/>
		</linearGradient>
		
			<rect x="1574.912" y="650.361" style="clip-path:url(#SVGID_00000049186996007064407260000014952654626366242750_);fill:url(#SVGID_00000003799068188111674090000012059945651836558212_);" width="836.579" height="793.705"/>
	</g>
	<g>
		<defs>
			<path id="SVGID_00000037688951298206209940000006265151630745222560_" d="M2288.093,1112.779
				c-93.201,132.618-239.968,217.577-401.382,232.344c56.27,52.636,115.681,137.445,178.238,254.436
				c178.455,256.167,516.907,57.563,638.581-451.536c32.141-132.051-4.806-271.389-98.168-370.149
				c-63.106-66.759-146.174-108.827-234.657-121.458C2411.492,813.289,2381.289,980.167,2288.093,1112.779"/>
		</defs>
		<clipPath id="SVGID_00000124872759339010186280000007997130925430401964_">
			<use xlink:href="#SVGID_00000037688951298206209940000006265151630745222560_"  style="overflow:visible;"/>
		</clipPath>
		
			<linearGradient id="SVGID_00000084520662081154549740000004321069426662283945_" gradientUnits="userSpaceOnUse" x1="2022.3356" y1="1568.0608" x2="2618.6135" y2="924.0266">
			<stop  offset="0" style="stop-color:#002223"/>
			<stop  offset="1" style="stop-color:#18EAF1"/>
		</linearGradient>
		
			<rect x="1886.711" y="656.415" style="clip-path:url(#SVGID_00000124872759339010186280000007997130925430401964_);fill:url(#SVGID_00000084520662081154549740000004321069426662283945_);" width="848.961" height="1199.31"/>
	</g>
	<defs>
		<filter id="Adobe_OpacityMaskFilter" filterUnits="userSpaceOnUse" x="1227.726" y="1714.668" width="1161.249" height="930.035">
			<feColorMatrix  type="matrix" values="1 0 0 0 0  0 1 0 0 0  0 0 1 0 0  0 0 0 1 0"/>
		</filter>
	</defs>
	
		<mask maskUnits="userSpaceOnUse" x="1227.726" y="1714.668" width="1161.249" height="930.035" id="SVGID_00000021099945218399685800000002504239220204206225_">
		<g style="filter:url(#Adobe_OpacityMaskFilter);">
			
				<linearGradient id="SVGID_00000018958943287969666430000011841252374825322670_" gradientUnits="userSpaceOnUse" x1="-4211.5566" y1="5007.7095" x2="-1598.0474" y2="6514.1514" gradientTransform="matrix(1 0 0 1 5136.7378 -3337.0884)">
				<stop  offset="0" style="stop-color:#FFFFFF"/>
				<stop  offset="1" style="stop-color:#000000"/>
			</linearGradient>
			
				<rect x="1227.726" y="1714.668" style="fill:url(#SVGID_00000018958943287969666430000011841252374825322670_);" width="1161.25" height="930.035"/>
		</g>
	</mask>
	
		<path style="mask:url(#SVGID_00000021099945218399685800000002504239220204206225_);fill-rule:evenodd;clip-rule:evenodd;fill:#860000;" d="
		M2295.158,2398.385c30.238,92.08-4.951,193-85.882,246.318c38.391-16.299,75.621-35.909,111.247-58.767
		c170.359-247.266,22.741-378.347-442.862-393.229c-260.095-4.19-496.146-153.034-612.032-385.91
		c-14.95-30.039-27.574-60.831-37.902-92.129C1373.372,2498.967,2181.447,2052.204,2295.158,2398.385"/>
	<defs>
		
			<filter id="Adobe_OpacityMaskFilter_00000122684952057315541440000000527670959126424984_" filterUnits="userSpaceOnUse" x="1193.011" y="860.269" width="1345.191" height="1725.667">
			<feColorMatrix  type="matrix" values="1 0 0 0 0  0 1 0 0 0  0 0 1 0 0  0 0 0 1 0"/>
		</filter>
	</defs>
	
		<mask maskUnits="userSpaceOnUse" x="1193.011" y="860.269" width="1345.191" height="1725.667" id="SVGID_00000173845711733425705050000001944358120839342269_">
		<g style="filter:url(#Adobe_OpacityMaskFilter_00000122684952057315541440000000527670959126424984_);">
			
				<linearGradient id="SVGID_00000079484316110436398710000009183996653371327889_" gradientUnits="userSpaceOnUse" x1="-4028.78" y1="4329.6802" x2="-2848.3" y2="5480.7695" gradientTransform="matrix(1 0 0 1 5125.209 -3356.6045)">
				<stop  offset="0" style="stop-color:#FFFFFF"/>
				<stop  offset="1" style="stop-color:#000000"/>
			</linearGradient>
			
				<rect x="1193.011" y="860.269" style="fill:url(#SVGID_00000079484316110436398710000009183996653371327889_);" width="1345.191" height="1725.667"/>
		</g>
	</mask>
	
		<path style="mask:url(#SVGID_00000173845711733425705050000001944358120839342269_);fill-rule:evenodd;clip-rule:evenodd;fill:#FFF000;" d="
		M2415.232,2029.196c-264.39-203.243-835.047,294.641-1104.261-388.24c-117.335-297.626,10.838-635.673,296.006-780.688
		c-109.434,48.517-206.519,125.293-279.824,225.574c-133.706,182.921-168.871,417.468-99.139,628.826
		c10.328,31.298,22.952,62.09,37.902,92.129c115.841,232.787,351.765,381.608,611.744,385.904c0.094,0,0.194,0.006,0.29,0.006
		c465.604,14.882,613.22,145.964,442.862,393.229c41.858-26.859,81.502-58.207,118.21-93.967
		c36.354-36.964,65.317-79.206,86.448-124.604C2562.018,2242.695,2518.233,2108.374,2415.232,2029.196"/>
	<defs>
		
			<filter id="Adobe_OpacityMaskFilter_00000155848181447226842540000002194094249350478223_" filterUnits="userSpaceOnUse" x="1339.786" y="860.269" width="829.773" height="976.161">
			<feColorMatrix  type="matrix" values="1 0 0 0 0  0 1 0 0 0  0 0 1 0 0  0 0 0 1 0"/>
		</filter>
	</defs>
	
		<mask maskUnits="userSpaceOnUse" x="1339.786" y="860.269" width="829.773" height="976.161" id="SVGID_00000049209991492711563270000008438345777101255055_">
		<g style="filter:url(#Adobe_OpacityMaskFilter_00000155848181447226842540000002194094249350478223_);">
			
				<linearGradient id="SVGID_00000171701984023614654060000001960862964452542127_" gradientUnits="userSpaceOnUse" x1="-3077.4014" y1="5385.6567" x2="-3711.439" y2="4584.8594" gradientTransform="matrix(1 0 0 1 5173.9517 -3605.5107)">
				<stop  offset="0" style="stop-color:#FFFFFF"/>
				<stop  offset="1" style="stop-color:#000000"/>
			</linearGradient>
			
				<rect x="1339.785" y="860.269" style="fill:url(#SVGID_00000171701984023614654060000001960862964452542127_);" width="829.775" height="976.162"/>
		</g>
	</mask>
	
		<path style="mask:url(#SVGID_00000049209991492711563270000008438345777101255055_);fill-rule:evenodd;clip-rule:evenodd;fill:#005C01;" d="
		M2096.198,1729.079c-237.655,116.192-524.688,26.898-654.486-203.609c-129.792-230.507-57.319-522.239,165.265-665.2
		c-169.371,94.499-272.243,275.251-267,469.127c5.239,193.887,117.723,368.813,291.954,454.033
		c174.226,85.221,381.366,66.63,537.628-48.262c-8.096-0.888-16.243-1.559-24.44-2.008
		C2128.483,1732.17,2112.169,1730.805,2096.198,1729.079"/>
	<defs>
		
			<filter id="Adobe_OpacityMaskFilter_00000124123052754262342030000016926756269034604955_" filterUnits="userSpaceOnUse" x="1377.408" y="800.495" width="718.79" height="979.417">
			<feColorMatrix  type="matrix" values="1 0 0 0 0  0 1 0 0 0  0 0 1 0 0  0 0 0 1 0"/>
		</filter>
	</defs>
	
		<mask maskUnits="userSpaceOnUse" x="1377.408" y="800.495" width="718.79" height="979.417" id="SVGID_00000060016704755496092530000007552850278580492958_">
		<g style="filter:url(#Adobe_OpacityMaskFilter_00000124123052754262342030000016926756269034604955_);">
			
				<linearGradient id="SVGID_00000062164016153885154400000001248761152482950569_" gradientUnits="userSpaceOnUse" x1="-2975.728" y1="4286.4204" x2="-3702.0891" y2="5249.0405" gradientTransform="matrix(1 0 0 1 5186.4458 -3624.2798)">
				<stop  offset="0" style="stop-color:#FFFFFF"/>
				<stop  offset="1" style="stop-color:#000000"/>
			</linearGradient>
			
				<rect x="1377.407" y="800.495" style="fill:url(#SVGID_00000062164016153885154400000001248761152482950569_);" width="718.79" height="979.418"/>
		</g>
	</mask>
	
		<path style="mask:url(#SVGID_00000060016704755496092530000007552850278580492958_);fill-rule:evenodd;clip-rule:evenodd;fill:#FFF000;" d="
		M1533.016,1144.453c54.494-227.183,279.834-369.788,508.482-321.792c-14.25-3.985-29.556-8.629-45.999-13.979
		c-134.304-20.759-268.802-1.492-388.522,51.587c-222.583,142.961-295.056,434.694-165.265,665.2
		c129.798,230.507,416.83,319.802,654.486,203.609c-98.944-10.682-184.937-35.049-256.012-67.174
		C1614.646,1600.956,1478.522,1371.643,1533.016,1144.453"/>
	<defs>
		
			<filter id="Adobe_OpacityMaskFilter_00000145750470972162494730000007141869609411734708_" filterUnits="userSpaceOnUse" x="1595.153" y="652.397" width="793.322" height="791.669">
			<feColorMatrix  type="matrix" values="1 0 0 0 0  0 1 0 0 0  0 0 1 0 0  0 0 0 1 0"/>
		</filter>
	</defs>
	
		<mask maskUnits="userSpaceOnUse" x="1595.153" y="652.397" width="793.322" height="791.669" id="SVGID_00000073698494339016957980000001620725514285755044_">
		<g style="filter:url(#Adobe_OpacityMaskFilter_00000145750470972162494730000007141869609411734708_);">
			
				<linearGradient id="SVGID_00000049187583586757419760000016717194052721098894_" gradientUnits="userSpaceOnUse" x1="-3848.2954" y1="5201.6548" x2="-2922.9819" y2="4536.9604" gradientTransform="matrix(1 0 0 1 5258.7578 -3735.8125)">
				<stop  offset="0" style="stop-color:#FFFFFF"/>
				<stop  offset="1" style="stop-color:#000000"/>
			</linearGradient>
			
				<rect x="1595.153" y="652.396" style="fill:url(#SVGID_00000049187583586757419760000016717194052721098894_);" width="793.323" height="791.67"/>
		</g>
	</mask>
	
		<path style="mask:url(#SVGID_00000073698494339016957980000001620725514285755044_);fill-rule:evenodd;clip-rule:evenodd;fill:#005C01;" d="
		M2090.604,1094.589c-132.396,102.267-312.819,116.335-459.465,35.82c-39.906,98.927-47.143,209.003-19.101,313.657
		c-11.804-48.484,2.679-92.612,46.791-122.372c69.161-61.797,145.126-53.99,227.882,23.429
		c161.414-14.766,308.18-99.726,401.382-232.344c93.196-132.612,123.399-299.49,82.612-456.363
		c-42.418-6.054-86.081-5.344-129.387,2.652C2282.182,821.296,2222.999,992.315,2090.604,1094.589"/>
	<defs>
		
			<filter id="Adobe_OpacityMaskFilter_00000000197943921058453290000002160107473908908164_" filterUnits="userSpaceOnUse" x="1595.153" y="822.661" width="446.345" height="621.405">
			<feColorMatrix  type="matrix" values="1 0 0 0 0  0 1 0 0 0  0 0 1 0 0  0 0 0 1 0"/>
		</filter>
	</defs>
	
		<mask maskUnits="userSpaceOnUse" x="1595.153" y="822.661" width="446.345" height="621.405" id="SVGID_00000158726721084342544150000000770212669697228946_">
		<g style="filter:url(#Adobe_OpacityMaskFilter_00000000197943921058453290000002160107473908908164_);">
			
				<linearGradient id="SVGID_00000031901736669859551250000013120906539153398426_" gradientUnits="userSpaceOnUse" x1="-3645.4277" y1="5023.8657" x2="-3088.9583" y2="4603.9536" gradientTransform="matrix(1 0 0 1 5258.7578 -3735.8125)">
				<stop  offset="0" style="stop-color:#FFFFFF"/>
				<stop  offset="1" style="stop-color:#000000"/>
			</linearGradient>
			
				<rect x="1595.153" y="822.661" style="fill:url(#SVGID_00000031901736669859551250000013120906539153398426_);" width="446.345" height="621.405"/>
		</g>
	</mask>
	
		<path style="mask:url(#SVGID_00000158726721084342544150000000770212669697228946_);fill-rule:evenodd;clip-rule:evenodd;fill:#005C01;" d="
		M1631.139,1130.409c-39.906,98.927-47.143,209.003-19.101,313.657c-11.804-48.484,2.679-92.612,46.791-122.372
		c0.472-57.58,10.349-113.356,28.352-165.653c54.866-159.415,185.176-286.461,354.317-333.38
		c-146.508,14.634-278.914,93.65-361.36,215.64C1660.433,1067.458,1644.068,1098.351,1631.139,1130.409"/>
	<defs>
		
			<filter id="Adobe_OpacityMaskFilter_00000025436406206065052670000008293636232035868061_" filterUnits="userSpaceOnUse" x="2064.949" y="656.42" width="649.961" height="1054.821">
			<feColorMatrix  type="matrix" values="1 0 0 0 0  0 1 0 0 0  0 0 1 0 0  0 0 0 1 0"/>
		</filter>
	</defs>
	
		<mask maskUnits="userSpaceOnUse" x="2064.949" y="656.42" width="649.961" height="1054.821" id="SVGID_00000163785726740932361120000006482265155696257173_">
		<g style="filter:url(#Adobe_OpacityMaskFilter_00000025436406206065052670000008293636232035868061_);">
			
				<linearGradient id="SVGID_00000149375615786935606720000015543072833290961323_" gradientUnits="userSpaceOnUse" x1="-2926.6736" y1="4310.6226" x2="-3073.499" y2="5088.7764" gradientTransform="matrix(1 0 0 1 5414.7744 -3647.0852)">
				<stop  offset="0" style="stop-color:#FFFFFF"/>
				<stop  offset="1" style="stop-color:#000000"/>
			</linearGradient>
			
				<rect x="2064.949" y="656.42" style="fill:url(#SVGID_00000149375615786935606720000015543072833290961323_);" width="649.96" height="1054.821"/>
		</g>
	</mask>
	
		<path style="mask:url(#SVGID_00000163785726740932361120000006482265155696257173_);fill-rule:evenodd;clip-rule:evenodd;fill:#5EF9F6;" d="
		M2370.705,656.42c120.076,157.279,155.319,363.469,94.294,551.701c-61.021,188.232-210.535,334.523-400.05,391.437
		c178.455,256.167,516.907,57.563,638.581-451.536c32.141-132.051-4.806-271.389-98.168-370.149
		C2542.257,711.115,2459.189,669.046,2370.705,656.42"/>
	<defs>
		
			<filter id="Adobe_OpacityMaskFilter_00000121985888570159326660000004072142684456191116_" filterUnits="userSpaceOnUse" x="1886.711" y="656.415" width="517.039" height="766.942">
			<feColorMatrix  type="matrix" values="1 0 0 0 0  0 1 0 0 0  0 0 1 0 0  0 0 0 1 0"/>
		</filter>
	</defs>
	
		<mask maskUnits="userSpaceOnUse" x="1886.711" y="656.415" width="517.039" height="766.942" id="SVGID_00000048464366895959956500000003389051444633612162_">
		<g style="filter:url(#Adobe_OpacityMaskFilter_00000121985888570159326660000004072142684456191116_);">
			
				<linearGradient id="SVGID_00000137104230013927455070000016903947292370775983_" gradientUnits="userSpaceOnUse" x1="-3477.4084" y1="4962.4307" x2="-2614.0684" y2="4380.999" gradientTransform="matrix(1 0 0 1 5355.5825 -3742.6897)">
				<stop  offset="0" style="stop-color:#FFFFFF"/>
				<stop  offset="1" style="stop-color:#000000"/>
			</linearGradient>
			
				<rect x="1886.711" y="656.416" style="fill:url(#SVGID_00000137104230013927455070000016903947292370775983_);" width="517.039" height="766.942"/>
		</g>
	</mask>
	
		<path style="mask:url(#SVGID_00000048464366895959956500000003389051444633612162_);fill-rule:evenodd;clip-rule:evenodd;fill:#005B50;" d="
		M2288.093,1112.779c-93.201,132.618-239.968,217.577-401.382,232.344c22.419,20.972,45.339,47.047,68.756,78.235
		c161.184-39.773,298.131-145.675,377.175-291.672c79.045-145.997,92.868-318.552,38.063-475.27
		C2411.492,813.289,2381.289,980.167,2288.093,1112.779"/>
	<path style="fill:#303030;" d="M2938.979,3033.592v-109.122c0-20.219-5.003-35.541-15.007-45.962
		c-10.004-10.422-23.868-15.632-41.586-15.632c-11.463,0-21.677,2.241-30.64,6.772c-8.963,4.535-17.094,11.153-24.388,20.012
		c-4.375-8.648-10.58-15.218-18.605-19.852c-8.025-4.638-17.56-6.932-28.609-6.932c-6.044,0-11.514,0.727-16.415,2.186
		c-4.897,1.514-9.328,3.494-13.287,5.994c-3.963,2.555-7.556,5.421-10.786,8.652c-3.232,3.283-6.202,6.669-8.911,10.266v-23.975
		h-47.528v167.593h47.528v-93.28c0-11.204,2.552-19.698,7.659-25.377c5.108-5.732,12.143-8.598,21.105-8.598
		c8.963,0,15.844,2.866,20.636,8.598c4.795,5.679,7.191,14.173,7.191,25.377v93.28h47.527v-93.28c0-11.204,2.552-19.698,7.66-25.377
		c5.106-5.732,12.142-8.598,21.105-8.598c8.963,0,15.843,2.866,20.636,8.598c4.793,5.679,7.194,14.173,7.194,25.377v93.28H2938.979z
		 M2640.691,3033.592v-167.593h-47.523v93.28c0,11.204-2.66,19.698-7.973,25.38c-5.318,5.732-12.559,8.598-21.733,8.598
		c-9.169,0-16.256-2.866-21.259-8.598c-5.005-5.683-7.504-14.177-7.504-25.38v-93.28h-47.523v108.498
		c0,19.384,4.948,34.603,14.849,45.648c9.901,11.049,23.919,16.574,42.055,16.574c6.044,0,11.465-0.731,16.259-2.189
		c4.795-1.511,9.17-3.49,13.133-5.995c3.958-2.552,7.556-5.417,10.788-8.648c3.23-3.283,6.2-6.669,8.91-10.267v23.971H2640.691z
		 M2454.34,2982.625V2982c0-7.714-1.562-14.28-4.689-19.698c-3.125-5.421-7.087-10.003-11.88-13.756s-10.216-6.932-16.26-9.539
		c-6.042-2.604-11.983-4.846-17.822-6.722c-4.583-1.458-8.912-2.917-12.974-4.376c-4.065-1.462-7.663-2.973-10.788-4.534
		c-3.127-1.562-5.627-3.232-7.503-5.004c-1.876-1.773-2.814-3.804-2.814-6.097v-0.625c0-3.334,1.458-6.097,4.376-8.287
		c2.917-2.186,7.297-3.282,13.133-3.282c6.044,0,13.028,1.406,20.949,4.22c7.922,2.815,16.05,6.618,24.388,11.416l18.133-32.831
		c-9.17-6.045-19.23-10.791-30.171-14.229c-10.944-3.438-21.73-5.158-32.362-5.158c-8.545,0-16.519,1.147-23.919,3.438
		c-7.401,2.294-13.864,5.736-19.385,10.319c-5.524,4.586-9.901,10.162-13.133,16.729c-3.23,6.566-4.848,14.122-4.848,22.671v0.624
		c0,8.128,1.513,15.008,4.535,20.636c3.021,5.628,6.931,10.37,11.726,14.226c4.793,3.854,10.161,6.982,16.1,9.38
		c5.942,2.396,11.833,4.431,17.667,6.096c4.586,1.459,8.963,2.814,13.133,4.065c4.168,1.252,7.869,2.552,11.101,3.907
		c3.23,1.355,5.783,2.972,7.659,4.849c1.876,1.876,2.814,4.062,2.814,6.566v0.624c0,3.751-1.614,6.771-4.845,9.065
		c-3.232,2.294-8.288,3.442-15.168,3.442c-7.917,0-16.415-1.669-25.482-5.004c-9.064-3.335-18.186-8.338-27.356-15.008
		l-20.326,31.268c11.255,8.752,23.088,15.163,35.489,19.229c12.405,4.063,24.544,6.097,36.427,6.097
		c8.963,0,17.353-1.097,25.167-3.283c7.818-2.19,14.646-5.473,20.481-9.849c5.839-4.38,10.369-9.956,13.601-16.729
		C2452.727,3000.085,2454.34,2992.005,2454.34,2982.625z M2248.918,2950.109c0,7.138-1.093,13.55-3.283,19.177
		c-2.186,5.68-5.159,10.577-8.91,14.643c-3.752,4.118-8.076,7.245-12.974,9.484c-4.9,2.189-10.163,3.282-15.791,3.282
		c-5.628,0-10.891-1.093-15.791-3.282c-4.896-2.239-9.169-5.366-12.817-9.484c-3.649-4.066-6.566-9.014-8.757-14.802
		c-2.185-5.73-3.282-12.087-3.282-19.018v-0.624c0-6.932,1.097-13.29,3.282-19.022c2.191-5.783,5.108-10.736,8.757-14.801
		c3.648-4.115,7.921-7.242,12.817-9.483c4.901-2.187,10.163-3.284,15.791-3.284c5.628,0,10.891,1.097,15.791,3.284
		c4.898,2.241,9.222,5.368,12.974,9.483c3.751,4.065,6.724,9.018,8.91,14.801c2.191,5.732,3.283,12.09,3.283,19.022V2950.109z
		 M2296.446,2950.109v-0.624c0-13.966-2.138-26.319-6.411-37.05c-4.273-10.735-9.953-19.806-17.04-27.202
		c-7.087-7.401-15.218-12.977-24.388-16.729c-9.173-3.751-18.657-5.628-28.454-5.628c-12.508,0-22.878,2.551-31.109,7.607
		c-8.235,5.055-15.271,11.518-21.106,19.384v-23.867h-47.528v217.62h47.528v-71.706c5.628,6.618,12.561,12.401,20.792,17.353
		c8.235,4.948,18.708,7.452,31.423,7.452c10.004,0,19.595-1.876,28.764-5.628c9.173-3.752,17.25-9.329,24.234-16.729
		c6.982-7.4,12.611-16.467,16.884-27.202C2294.308,2976.425,2296.446,2964.076,2296.446,2950.109z M2070.697,3033.592v-218.869
		h-48.148v218.869H2070.697z M1880.284,3033.592v-109.122c0-20.219-5.004-35.541-15.007-45.962
		c-10.005-10.422-23.868-15.632-41.586-15.632c-11.464,0-21.678,2.241-30.641,6.772c-8.962,4.535-17.094,11.153-24.388,20.012
		c-4.376-8.648-10.579-15.218-18.604-19.852c-8.025-4.638-17.56-6.932-28.609-6.932c-6.046,0-11.514,0.727-16.415,2.186
		c-4.898,1.514-9.329,3.494-13.287,5.994c-3.963,2.555-7.556,5.421-10.786,8.652c-3.232,3.283-6.202,6.669-8.912,10.266v-23.975
		h-47.528v167.593h47.528v-93.28c0-11.204,2.551-19.698,7.659-25.377c5.106-5.732,12.142-8.598,21.105-8.598
		c8.963,0,15.843,2.866,20.636,8.598c4.793,5.679,7.19,14.173,7.19,25.377v93.28h47.528v-93.28c0-11.204,2.552-19.698,7.66-25.377
		c5.106-5.732,12.142-8.598,21.103-8.598c8.964,0,15.844,2.866,20.636,8.598c4.795,5.679,7.194,14.173,7.194,25.377v93.28H1880.284z
		 M1542.914,2936.663h-71.603c1.876-10.838,5.891-19.487,12.04-25.949c6.147-6.463,14.225-9.694,24.232-9.694
		c10.004,0,18.029,3.282,24.075,9.848C1537.703,2917.434,1541.455,2926.035,1542.914,2936.663z M1589.189,2954.485v-0.624
		c0-11.879-1.617-23.296-4.845-34.237c-3.23-10.942-8.235-20.637-15.007-29.078c-6.777-8.442-15.271-15.167-25.485-20.167
		c-10.214-5.003-22.302-7.504-36.268-7.504c-12.298,0-23.501,2.294-33.613,6.876c-10.107,4.587-18.811,10.843-26.11,18.763
		c-7.293,7.918-12.973,17.194-17.038,27.826c-4.065,10.632-6.097,21.889-6.097,33.768v0.624c0,12.926,2.191,24.651,6.566,35.176
		c4.377,10.528,10.473,19.646,18.291,27.36c7.819,7.711,17.095,13.653,27.826,17.822c10.736,4.169,22.358,6.251,34.865,6.251
		c15.215,0,28.451-2.762,39.706-8.286c11.257-5.521,20.846-13.184,28.768-22.982L1553.546,2982
		c-6.669,6.046-13.131,10.422-19.387,13.132c-6.252,2.711-13.339,4.066-21.261,4.066c-10.63,0-19.542-2.762-26.733-8.287
		c-7.19-5.525-11.93-13.705-14.224-24.544h116.625c0.207-2.292,0.362-4.276,0.469-5.942
		C1589.139,2958.759,1589.189,2956.779,1589.189,2954.485z M1403.152,2912.589v-49.713c-14.174-0.629-25.429,2.5-33.769,9.38
		c-8.338,6.88-14.903,16.05-19.698,27.515v-33.771h-47.526v167.593h47.526v-61.909c0-20.218,4.533-35.124,13.602-44.71
		c9.066-9.59,21.522-14.384,37.361-14.384H1403.152z M1220.866,2950.733c0,6.255-0.99,12.143-2.973,17.667
		c-1.979,5.524-4.845,10.37-8.597,14.538c-3.752,4.17-8.287,7.453-13.6,9.85c-5.314,2.396-11.411,3.597-18.291,3.597
		c-6.669,0-12.664-1.253-17.978-3.753c-5.317-2.503-9.952-5.89-13.915-10.162c-3.958-4.273-6.984-9.173-9.066-14.694
		c-2.086-5.525-3.127-11.415-3.127-17.667v-0.624c0-6.255,0.99-12.142,2.969-17.667c1.982-5.525,4.849-10.369,8.6-14.539
		c3.752-4.17,8.284-7.452,13.602-9.849c5.314-2.397,11.411-3.597,18.292-3.597c6.462,0,12.401,1.252,17.82,3.752
		c5.418,2.503,10.108,5.89,14.071,10.162c3.959,4.273,6.983,9.17,9.066,14.695c2.086,5.525,3.127,11.414,3.127,17.667V2950.733z
		 M1267.767,2950.109v-0.624c0-12.09-2.294-23.398-6.881-33.927c-4.586-10.525-10.891-19.698-18.916-27.512
		c-8.023-7.818-17.563-13.967-28.609-18.45c-11.048-4.479-23.032-6.721-35.957-6.721c-13.133,0-25.223,2.294-36.268,6.876
		c-11.049,4.587-20.636,10.843-28.768,18.763c-8.128,7.918-14.487,17.143-19.07,27.671c-4.586,10.525-6.88,21.832-6.88,33.923v0.624
		c0,12.091,2.294,23.399,6.88,33.927c4.583,10.525,10.891,19.698,18.914,27.512c8.025,7.818,17.564,13.967,28.609,18.449
		c11.049,4.479,23.032,6.721,35.959,6.721c13.13,0,25.222-2.292,36.267-6.879c11.049-4.582,20.636-10.838,28.768-18.76
		c8.128-7.92,14.484-17.143,19.07-27.67C1265.474,2973.507,1267.767,2962.2,1267.767,2950.109z M1063.282,3033.592v-43.462H954.16
		v-175.406h-48.151v218.869H1063.282z"/>
	<path style="fill:#303030;" d="M2543.08,3205.604v-62.617h-13.593v38.554l-29.344-38.554h-12.699v62.617h13.596v-39.807
		l30.324,39.807H2543.08z M2425.896,3179.394h-16.636l8.32-20.307L2425.896,3179.394z M2450.946,3205.604l-26.836-63.065h-12.703
		l-26.836,63.065h14.043l5.728-14.044h26.479l5.724,14.044H2450.946z M2349.864,3196.748v-27.195h-27.195v11.899h13.864v9.003
		c-3.516,2.522-7.84,3.789-12.97,3.789c-2.802,0-5.35-0.495-7.648-1.478c-2.297-0.982-4.295-2.385-5.993-4.173
		c-1.698-1.791-3.013-3.892-3.936-6.322c-0.925-2.416-1.385-5.071-1.385-7.933v-0.177c0-2.685,0.46-5.219,1.385-7.574
		c0.923-2.371,2.207-4.428,3.848-6.189c1.639-1.758,3.549-3.177,5.724-4.218c2.175-1.045,4.515-1.566,7.024-1.566
		c1.788,0,3.427,0.148,4.919,0.447c1.491,0.299,2.876,0.717,4.158,1.252c1.281,0.535,2.519,1.192,3.711,1.968
		c1.192,0.776,2.385,1.67,3.579,2.685l8.678-10.466c-1.61-1.373-3.28-2.596-5.011-3.671c-1.729-1.071-3.576-1.964-5.543-2.681
		c-1.969-0.717-4.104-1.267-6.396-1.655c-2.297-0.387-4.846-0.583-7.649-0.583c-4.771,0-9.156,0.849-13.15,2.552
		c-3.996,1.699-7.456,4.025-10.377,6.976c-2.92,2.951-5.203,6.381-6.843,10.289c-1.639,3.904-2.458,8.095-2.458,12.567v0.177
		c0,4.653,0.804,8.948,2.414,12.885c1.61,3.934,3.86,7.334,6.755,10.197c2.892,2.862,6.352,5.1,10.376,6.71
		c4.026,1.61,8.484,2.414,13.372,2.414c5.724,0,10.81-0.971,15.253-2.91C2342.811,3201.833,2346.644,3199.491,2349.864,3196.748z
		 M2239.476,3174.472c0,2.685-0.462,5.204-1.389,7.56c-0.924,2.356-2.204,4.428-3.844,6.219c-1.641,1.788-3.623,3.191-5.95,4.203
		c-2.326,1.015-4.859,1.521-7.603,1.521c-2.804,0-5.352-0.521-7.648-1.565c-2.297-1.042-4.293-2.46-5.993-4.248
		c-1.7-1.791-3.014-3.877-3.938-6.262c-0.922-2.385-1.384-4.919-1.384-7.604v-0.177c0-2.685,0.462-5.204,1.384-7.559
		c0.923-2.357,2.21-4.429,3.849-6.219c1.639-1.787,3.606-3.191,5.9-4.203c2.297-1.015,4.849-1.521,7.653-1.521
		c2.739,0,5.277,0.521,7.603,1.566c2.323,1.041,4.336,2.46,6.037,4.247c1.7,1.791,3.01,3.877,3.933,6.263
		c0.928,2.385,1.389,4.919,1.389,7.604V3174.472z M2253.877,3174.294v-0.177c0-4.476-0.82-8.664-2.458-12.57
		c-1.641-3.907-3.938-7.305-6.891-10.197c-2.951-2.891-6.456-5.188-10.511-6.887c-4.053-1.703-8.497-2.552-13.327-2.552
		c-4.83,0-9.288,0.849-13.372,2.552c-4.087,1.699-7.603,4.025-10.558,6.976c-2.949,2.951-5.261,6.381-6.931,10.289
		c-1.669,3.904-2.504,8.095-2.504,12.567v0.177c0,4.476,0.821,8.664,2.46,12.57c1.639,3.904,3.936,7.305,6.887,10.198
		c2.951,2.891,6.456,5.188,10.51,6.886c4.055,1.703,8.501,2.552,13.333,2.552c4.83,0,9.288-0.849,13.371-2.552
		c4.085-1.698,7.604-4.025,10.555-6.975c2.954-2.951,5.262-6.382,6.931-10.289
		C2253.042,3182.958,2253.877,3178.767,2253.877,3174.294z M2152.883,3205.604v-12.435h-31.219v-50.182h-13.775v62.617H2152.883z
		 M2069.065,3187.087v-0.181c0-2.74-0.435-5.096-1.3-7.065c-0.863-1.968-2.16-3.682-3.858-5.144
		c-1.702-1.462-3.803-2.714-6.278-3.756c-2.475-1.045-5.306-1.983-8.484-2.818c-2.683-0.716-4.904-1.344-6.68-1.879
		c-1.758-0.537-3.146-1.105-4.173-1.699c-1.016-0.598-1.714-1.271-2.101-2.013c-0.388-0.745-0.584-1.625-0.584-2.641v-0.176
		c0-1.551,0.672-2.848,2.013-3.893c1.344-1.045,3.357-1.567,6.037-1.567c2.686,0,5.37,0.552,8.052,1.655
		c2.685,1.104,5.428,2.611,8.231,4.517l7.157-10.374c-3.221-2.566-6.755-4.534-10.603-5.905c-3.845-1.374-8.066-2.057-12.656-2.057
		c-3.219,0-6.174,0.446-8.839,1.34c-2.67,0.894-4.983,2.176-6.906,3.848c-1.922,1.67-3.413,3.652-4.487,5.946
		c-1.057,2.297-1.595,4.878-1.595,7.74v0.177c0,3.102,0.491,5.695,1.478,7.785c0.982,2.087,2.385,3.83,4.173,5.233
		c1.791,1.399,3.98,2.578,6.547,3.53c2.577,0.956,5.44,1.821,8.615,2.596c2.628,0.657,4.773,1.282,6.412,1.88
		c1.639,0.594,2.92,1.192,3.863,1.787c0.923,0.598,1.551,1.237,1.876,1.924c0.328,0.687,0.494,1.477,0.494,2.371v0.178
		c0,1.85-0.79,3.293-2.37,4.338c-1.581,1.046-3.804,1.567-6.666,1.567c-3.577,0-6.872-0.688-9.882-2.057
		c-3.013-1.374-5.949-3.221-8.81-5.547l-8.144,9.749c3.76,3.401,7.932,5.92,12.523,7.56c4.595,1.64,9.278,2.459,14.044,2.459
		c3.401,0,6.503-0.432,9.292-1.296c2.788-0.864,5.203-2.116,7.215-3.756c2.013-1.639,3.579-3.671,4.709-6.086
		C2068.497,3192.944,2069.065,3190.189,2069.065,3187.087z M1957.783,3205.604v-12.257h-33.989v-13.147h29.518v-12.256h-29.518
		v-12.704h33.544v-12.253h-47.141v62.617H1957.783z M1868.331,3205.604v-62.617h-14.85l-16.459,26.477l-16.46-26.477h-14.849v62.617
		h13.598v-40.612l17.441,26.479h0.359l17.623-26.749v40.881H1868.331z M1752.217,3174.472c0,2.685-0.462,5.204-1.388,7.56
		c-0.923,2.356-2.206,4.428-3.845,6.219c-1.639,1.788-3.623,3.191-5.949,4.203c-2.328,1.015-4.859,1.521-7.604,1.521
		c-2.803,0-5.351-0.521-7.647-1.565c-2.298-1.042-4.296-2.46-5.995-4.248c-1.698-1.791-3.013-3.877-3.936-6.262
		c-0.923-2.385-1.385-4.919-1.385-7.604v-0.177c0-2.685,0.462-5.204,1.385-7.559c0.923-2.357,2.208-4.429,3.848-6.219
		c1.639-1.787,3.608-3.191,5.902-4.203c2.297-1.015,4.849-1.521,7.651-1.521c2.741,0,5.277,0.521,7.603,1.566
		c2.323,1.041,4.336,2.46,6.039,4.247c1.698,1.791,3.01,3.877,3.933,6.263c0.926,2.385,1.388,4.919,1.388,7.604V3174.472z
		 M1766.62,3174.294v-0.177c0-4.476-0.82-8.664-2.46-12.57c-1.639-3.907-3.938-7.305-6.891-10.197
		c-2.951-2.891-6.455-5.188-10.51-6.887c-4.055-1.703-8.497-2.552-13.328-2.552c-4.83,0-9.286,0.849-13.371,2.552
		c-4.089,1.699-7.604,4.025-10.558,6.976c-2.951,2.951-5.264,6.381-6.932,10.289c-1.669,3.904-2.502,8.095-2.502,12.567v0.177
		c0,4.476,0.819,8.664,2.458,12.57c1.639,3.904,3.938,7.305,6.888,10.198c2.951,2.891,6.455,5.188,10.51,6.886
		c4.054,1.703,8.5,2.552,13.331,2.552c4.83,0,9.286-0.849,13.371-2.552c4.085-1.698,7.604-4.025,10.555-6.975
		c2.954-2.951,5.262-6.382,6.931-10.289C1765.785,3182.958,1766.62,3178.767,1766.62,3174.294z M1664.016,3187.087v-0.181
		c0-2.74-0.437-5.096-1.3-7.065c-0.865-1.968-2.161-3.682-3.859-5.144c-1.703-1.462-3.804-2.714-6.278-3.756
		c-2.474-1.045-5.306-1.983-8.482-2.818c-2.685-0.716-4.904-1.344-6.681-1.879c-1.757-0.537-3.146-1.105-4.173-1.699
		c-1.014-0.598-1.713-1.271-2.101-2.013c-0.387-0.745-0.584-1.625-0.584-2.641v-0.176c0-1.551,0.672-2.848,2.013-3.893
		c1.344-1.045,3.357-1.567,6.039-1.567c2.683,0,5.37,0.552,8.05,1.655c2.685,1.104,5.428,2.611,8.231,4.517l7.157-10.374
		c-3.22-2.566-6.755-4.534-10.602-5.905c-3.843-1.374-8.065-2.057-12.655-2.057c-3.221,0-6.175,0.446-8.841,1.34
		c-2.67,0.894-4.981,2.176-6.906,3.848c-1.92,1.67-3.413,3.652-4.487,5.946c-1.056,2.297-1.595,4.878-1.595,7.74v0.177
		c0,3.102,0.491,5.695,1.478,7.785c0.982,2.087,2.386,3.83,4.173,5.233c1.791,1.399,3.982,2.578,6.549,3.53
		c2.576,0.956,5.439,1.821,8.615,2.596c2.626,0.657,4.771,1.282,6.411,1.88c1.641,0.594,2.922,1.192,3.863,1.787
		c0.923,0.598,1.551,1.237,1.876,1.924c0.329,0.687,0.495,1.477,0.495,2.371v0.178c0,1.85-0.791,3.293-2.372,4.338
		c-1.579,1.046-3.804,1.567-6.665,1.567c-3.579,0-6.872-0.688-9.882-2.057c-3.014-1.374-5.949-3.221-8.812-5.547l-8.143,9.749
		c3.758,3.401,7.932,5.92,12.523,7.56c4.593,1.64,9.276,2.459,14.043,2.459c3.402,0,6.503-0.432,9.292-1.296
		c2.788-0.864,5.203-2.116,7.215-3.756c2.013-1.639,3.58-3.671,4.709-6.086C1663.447,3192.944,1664.016,3190.189,1664.016,3187.087z
		 M1579.57,3205.604v-12.257h-33.989v-13.147h29.517v-12.256h-29.517v-12.704h33.542v-12.253h-47.14v62.617H1579.57z
		 M1494.951,3142.987h-14.402l-12.974,42.401l-14.044-42.582h-11.807l-14.044,42.582l-12.973-42.401h-14.757l21.38,63.064h11.986
		l14.134-40.969l14.131,40.969h11.987L1494.951,3142.987z M1343.235,3179.394h-16.638l8.322-20.307L1343.235,3179.394z
		 M1368.284,3205.604l-26.836-63.065h-12.703l-26.838,63.065h14.046l5.727-14.044h26.479l5.724,14.044H1368.284z"/>
</g>
</svg>
